<?xml version="1.0" encoding="UTF-8" standalone="no"?>
<!DOCTYPE svg PUBLIC "-//W3C//DTD SVG 1.1//EN" "http://www.w3.org/Graphics/SVG/1.1/DTD/svg11.dtd">
<svg width="100%" height="100%" viewBox="0 0 478 145" version="1.1" xmlns="http://www.w3.org/2000/svg" xmlns:xlink="http://www.w3.org/1999/xlink" xml:space="preserve" xmlns:serif="http://www.serif.com/" style="fill-rule:evenodd;clip-rule:evenodd;stroke-linecap:square;stroke-miterlimit:1.5;">
    <g transform="matrix(1,0,0,1,-12.14,-169.105)">
        <g transform="matrix(1,0,0,0.995215,0,1.25347)">
            <g transform="matrix(83.3333,0,0,83.3333,30.875,313.058)">
                <path d="M0.095,0L0.116,0L0.116,-0.207L0.306,-0.207C0.375,-0.207 0.429,-0.226 0.469,-0.263C0.508,-0.3 0.528,-0.348 0.528,-0.406C0.528,-0.463 0.508,-0.509 0.469,-0.546C0.429,-0.582 0.375,-0.6 0.306,-0.6L0.095,-0.6L0.095,0ZM0.507,-0.406C0.507,-0.353 0.489,-0.31 0.452,-0.277C0.415,-0.244 0.367,-0.227 0.307,-0.227L0.116,-0.227L0.116,-0.58L0.307,-0.58C0.367,-0.58 0.415,-0.564 0.452,-0.532C0.489,-0.499 0.507,-0.457 0.507,-0.406Z" style="fill-rule:nonzero;"/>
            </g>
            <g transform="matrix(83.3333,0,0,83.3333,77.875,313.058)">
                <path d="M0.446,-0.313L0.116,-0.313L0.116,-0.58L0.492,-0.58L0.492,-0.6L0.095,-0.6L0.095,0L0.492,0L0.492,-0.02L0.116,-0.02L0.116,-0.293L0.446,-0.293L0.446,-0.313Z" style="fill-rule:nonzero;"/>
            </g>
            <g transform="matrix(83.3333,0,0,83.3333,122.625,313.058)">
                <path d="M0.473,-0.6L0.024,-0.6L0.024,-0.58L0.238,-0.58L0.238,0L0.259,0L0.259,-0.58L0.473,-0.58L0.473,-0.6Z" style="fill-rule:nonzero;"/>
            </g>
            <g transform="matrix(83.3333,0,0,83.3333,164.042,313.058)">
                <rect x="0.095" y="-0.6" width="0.021" height="0.6" style="fill-rule:nonzero;"/>
            </g>
            <g transform="matrix(83.3333,0,0,83.3333,181.625,313.058)">
                <path d="M0.473,-0.6L0.024,-0.6L0.024,-0.58L0.238,-0.58L0.238,0L0.259,0L0.259,-0.58L0.473,-0.58L0.473,-0.6Z" style="fill-rule:nonzero;"/>
            </g>
            <g transform="matrix(83.3333,0,0,83.3333,223.042,313.058)">
                <path d="M0.446,-0.313L0.116,-0.313L0.116,-0.58L0.492,-0.58L0.492,-0.6L0.095,-0.6L0.095,0L0.492,0L0.492,-0.02L0.116,-0.02L0.116,-0.293L0.446,-0.293L0.446,-0.313Z" style="fill-rule:nonzero;"/>
            </g>
            <g transform="matrix(83.3333,0,0,83.3333,288.042,313.058)">
                <path d="M0.527,-0.085L0.508,-0.066C0.496,-0.053 0.475,-0.039 0.444,-0.026C0.413,-0.013 0.38,-0.006 0.344,-0.006C0.265,-0.006 0.2,-0.035 0.149,-0.092C0.098,-0.149 0.072,-0.218 0.072,-0.298C0.072,-0.379 0.098,-0.449 0.149,-0.506C0.2,-0.564 0.265,-0.593 0.344,-0.593C0.367,-0.593 0.389,-0.59 0.41,-0.585C0.431,-0.58 0.449,-0.574 0.462,-0.567C0.474,-0.56 0.487,-0.553 0.498,-0.544C0.509,-0.535 0.517,-0.528 0.52,-0.525C0.523,-0.522 0.526,-0.519 0.527,-0.517L0.539,-0.533L0.519,-0.553C0.506,-0.566 0.483,-0.58 0.451,-0.593C0.418,-0.606 0.383,-0.613 0.344,-0.613C0.259,-0.613 0.189,-0.583 0.134,-0.523C0.078,-0.463 0.05,-0.388 0.05,-0.298C0.05,-0.209 0.078,-0.135 0.134,-0.076C0.19,-0.016 0.26,0.014 0.344,0.014C0.368,0.014 0.391,0.011 0.414,0.005C0.437,-0.001 0.455,-0.008 0.469,-0.015C0.483,-0.022 0.496,-0.031 0.508,-0.04C0.52,-0.049 0.528,-0.056 0.531,-0.06C0.534,-0.064 0.537,-0.067 0.539,-0.069L0.527,-0.085Z" style="fill-rule:nonzero;"/>
            </g>
            <g transform="matrix(83.3333,0,0,83.3333,335.375,313.058)">
                <path d="M0.34,0.014C0.426,0.014 0.496,-0.016 0.549,-0.075C0.602,-0.134 0.629,-0.208 0.629,-0.298C0.629,-0.389 0.603,-0.465 0.55,-0.524C0.497,-0.583 0.427,-0.613 0.34,-0.613C0.254,-0.613 0.184,-0.583 0.131,-0.524C0.078,-0.465 0.051,-0.389 0.051,-0.298C0.051,-0.208 0.078,-0.134 0.131,-0.075C0.184,-0.016 0.254,0.014 0.34,0.014ZM0.34,-0.006C0.258,-0.006 0.193,-0.034 0.145,-0.091C0.096,-0.148 0.072,-0.217 0.072,-0.298C0.072,-0.381 0.096,-0.451 0.144,-0.507C0.192,-0.565 0.257,-0.593 0.34,-0.593C0.423,-0.593 0.488,-0.565 0.536,-0.507C0.584,-0.451 0.608,-0.381 0.608,-0.298C0.608,-0.217 0.584,-0.148 0.536,-0.091C0.488,-0.034 0.423,-0.006 0.34,-0.006Z" style="fill-rule:nonzero;"/>
            </g>
            <g transform="matrix(83.3333,0,0,83.3333,392.042,313.058)">
                <rect x="0.095" y="-0.6" width="0.021" height="0.6" style="fill-rule:nonzero;"/>
            </g>
            <g transform="matrix(83.3333,0,0,83.3333,409.625,313.058)">
                <path d="M0.569,-0.6L0.548,-0.6L0.548,-0.026L0.124,-0.6L0.095,-0.6L0.095,0L0.116,0L0.116,-0.575L0.541,0L0.569,0L0.569,-0.6Z" style="fill-rule:nonzero;"/>
            </g>
        </g>
        <g transform="matrix(1,0,0,1.00246,0,-0.420277)">
            <path d="M488.379,311.66L488.379,170.607L13.642,170.607L13.642,311.66" style="fill:none;stroke:black;stroke-width:1.66px;"/>
        </g>
        <path d="M488.379,312.007L455.843,312.007" style="fill:none;stroke:black;stroke-width:1.67px;"/>
        <path d="M13.642,312.007L39.712,312.007" style="fill:none;stroke:black;stroke-width:1.67px;"/>
    </g>
</svg>
