<?xml version="1.0" encoding="UTF-8" standalone="no"?>
<!DOCTYPE svg PUBLIC "-//W3C//DTD SVG 1.1//EN" "http://www.w3.org/Graphics/SVG/1.1/DTD/svg11.dtd">
<svg width="100%" height="100%" viewBox="0 0 204 204" version="1.1" xmlns="http://www.w3.org/2000/svg" xmlns:xlink="http://www.w3.org/1999/xlink" xml:space="preserve" xmlns:serif="http://www.serif.com/" style="fill-rule:evenodd;clip-rule:evenodd;stroke-linecap:square;stroke-miterlimit:1.5;">
    <g transform="matrix(1,0,0,1,-926.275,-148.498)">
        <g transform="matrix(1,0,0,1,25.8362,-103.749)">
            <g transform="matrix(130.839,0,0,130.839,926.912,454.553)">
                <path d="M0.095,0L0.116,0L0.116,-0.207L0.306,-0.207C0.375,-0.207 0.429,-0.226 0.469,-0.263C0.508,-0.3 0.528,-0.348 0.528,-0.406C0.528,-0.463 0.508,-0.509 0.469,-0.546C0.429,-0.582 0.375,-0.6 0.306,-0.6L0.095,-0.6L0.095,0ZM0.507,-0.406C0.507,-0.353 0.489,-0.31 0.452,-0.277C0.415,-0.244 0.367,-0.227 0.307,-0.227L0.116,-0.227L0.116,-0.58L0.307,-0.58C0.367,-0.58 0.415,-0.564 0.452,-0.532C0.489,-0.499 0.507,-0.457 0.507,-0.406Z" style="fill-rule:nonzero;"/>
            </g>
            <g transform="matrix(122.699,0,0,127.778,999.171,453.057)">
                <path d="M0.386,0.012C0.398,0.013 0.374,0.003 0.375,-0.003C0.377,-0.008 0.361,-0.006 0.344,-0.006C0.265,-0.006 0.2,-0.035 0.149,-0.092C0.098,-0.149 0.072,-0.218 0.072,-0.298C0.072,-0.379 0.098,-0.449 0.149,-0.506C0.2,-0.564 0.265,-0.593 0.344,-0.593C0.367,-0.593 0.389,-0.59 0.41,-0.585C0.431,-0.58 0.449,-0.574 0.462,-0.567C0.474,-0.56 0.487,-0.553 0.498,-0.544C0.509,-0.535 0.517,-0.528 0.52,-0.525C0.523,-0.522 0.526,-0.519 0.527,-0.517L0.539,-0.533L0.519,-0.553C0.506,-0.566 0.483,-0.58 0.451,-0.593C0.418,-0.606 0.383,-0.613 0.344,-0.613C0.259,-0.613 0.189,-0.583 0.134,-0.523C0.078,-0.463 0.05,-0.388 0.05,-0.298C0.05,-0.209 0.078,-0.135 0.134,-0.076C0.189,-0.017 0.251,0.007 0.332,0.012C0.334,0.012 0.384,0.012 0.386,0.012Z" style="fill-rule:nonzero;"/>
            </g>
            <g transform="matrix(0.803823,0,0,1,192.248,103.749)">
                <path d="M1092.85,349.636L1060.1,349.636" style="fill:none;stroke:black;stroke-width:2.45px;"/>
            </g>
        </g>
        <g transform="matrix(1,0,0,1,0.777778,0)">
            <path d="M927,350L927,150L1127,150L1127,350" style="fill:none;stroke:black;stroke-width:1.67px;"/>
        </g>
        <g transform="matrix(1,0,0,1,0.777778,0)">
            <path d="M1127,350L1094.56,349.636" style="fill:none;stroke:black;stroke-width:2.22px;"/>
        </g>
        <g transform="matrix(1,0,0,1,0.777778,0)">
            <path d="M927,350L965.848,350" style="fill:none;stroke:black;stroke-width:1.67px;"/>
        </g>
    </g>
</svg>
